name analog
datacolumns 19
datarows 18
range 0.356 0.3645
endheader
time	ground_force_vx	ground_force_vy	ground_force_vz	ground_force_px	ground_force_py	ground_force_pz	l_ground_force_vx	l_ground_force_vy	l_ground_force_vz	l_ground_force_px	l_ground_force_py	l_ground_force_pz	ground_torque_x	ground_torque_y	ground_torque_z	l_ground_torque_x	l_ground_torque_y	l_ground_torque_z
0.356	-0.0	-0.0	-0.0	-9.443899154663086	7.205624103546143	-354.4974060058594	0.2787081003189087	-3.608668565750122	-365.4618835449219	-0.0	-0.0	-0.0	-0.0	-0.0	-0.0	108114.546875	3432.302001953125	-6937.82275390625
0.3565	-0.0	-0.0	-0.0	-9.774203300476074	7.10381555557251	-356.71173095703125	0.0254124552011489	-3.343805313110352	-363.7178039550781	-0.0	-0.0	-0.0	-0.0	-0.0	-0.0	107900.9296875	3509.28662109375	-7043.87744140625
0.357	-0.0	-0.0	-0.0	-10.462021827697754	7.192635536193848	-355.6522216796875	-0.4057453274726867	-2.952991247177124	-361.326171875	-0.0	-0.0	-0.0	-0.0	-0.0	-0.0	107604.53125	3368.468017578125	-7154.20458984375
0.3575	-0.0	-0.0	-0.0	-11.175472259521484	7.559364318847656	-354.33514404296875	-1.3551450967788696	-3.079071044921875	-362.3190612792969	-0.0	-0.0	-0.0	-0.0	-0.0	-0.0	107346.8984375	3573.62841796875	-7383.66162109375
0.358	-0.0	-0.0	-0.0	-11.34347438812256	7.675460815429687	-352.7248840332031	-1.8617305755615237	-2.8904013633728027	-360.97021484375	-0.0	-0.0	-0.0	-0.0	-0.0	-0.0	107316.421875	3462.34130859375	-7464.79736328125
0.3585	-0.0	-0.0	-0.0	-11.93044662475586	7.395811080932617	-353.3370056152344	-2.028303623199463	-2.712528944015503	-359.5730285644531	-0.0	-0.0	-0.0	-0.0	-0.0	-0.0	106956.3046875	3527.6806640625	-7541.3154296875
0.359	-0.0	-0.0	-0.0	-12.973103523254396	7.447123527526855	-351.96258544921875	-3.144136905670166	-2.484883546829224	-359.7738647460937	-0.0	-0.0	-0.0	-0.0	-0.0	-0.0	106689.7734375	3449.247314453125	-7689.84228515625
0.3595	-0.0	-0.0	-0.0	-13.637524604797363	7.282873630523682	-351.5065612792969	-3.055561065673828	-2.233550786972046	-357.282958984375	-0.0	-0.0	-0.0	-0.0	-0.0	-0.0	106222.171875	3686.183837890625	-7783.2861328125
0.36	-0.0	-0.0	-0.0	-14.170156478881836	7.587640285491943	-350.41119384765625	-3.877614974975586	-1.9569437503814695	-356.6944580078125	-0.0	-0.0	-0.0	-0.0	-0.0	-0.0	105782.5546875	3449.2099609375	-7940.71435546875
0.3605	-0.0	-0.0	-0.0	-14.523822784423828	7.329184532165527	-350.70770263671875	-4.321130275726318	-2.3450794219970703	-355.19805908203125	-0.0	-0.0	-0.0	-0.0	-0.0	-0.0	105745.65625	3349.230712890625	-8063.69482421875
0.361	-0.0	-0.0	-0.0	-15.240418434143066	7.375106811523437	-350.0463256835937	-4.7132062911987305	-1.701080322265625	-355.8867492675781	-0.0	-0.0	-0.0	-0.0	-0.0	-0.0	105804.2890625	3211.327880859375	-8241.78515625
0.3615	-0.0	-0.0	-0.0	-15.879470825195312	7.780307769775391	-348.6469116210937	-5.168063163757324	-1.6638298034667969	-356.03326416015625	-0.0	-0.0	-0.0	-0.0	-0.0	-0.0	105512.71875	2930.984619140625	-8221.0380859375
0.362	-0.0	-0.0	-0.0	-16.35154914855957	8.129493713378906	-349.6922302246094	-5.030712127685547	-0.971538543701172	-355.1316833496094	-0.0	-0.0	-0.0	-0.0	-0.0	-0.0	105697.2890625	2945.91455078125	-8372.86328125
0.3625	-0.0	-0.0	-0.0	-15.994733810424805	7.8734450340271	-348.7355041503906	-5.308039665222168	-0.8686733841896057	-355.1755676269531	-0.0	-0.0	-0.0	-0.0	-0.0	-0.0	105374.8828125	2821.658203125	-8381.6455078125
0.363	-0.0	-0.0	-0.0	-16.630184173583984	8.278200149536133	-351.0874938964844	-5.374383449554443	-0.4820604622364044	-354.2289733886719	-0.0	-0.0	-0.0	-0.0	-0.0	-0.0	105432.921875	2618.986328125	-8589.21484375
0.3635	-0.0	-0.0	-0.0	-16.0948429107666	8.645648956298828	-352.3095397949219	-5.928706169128418	-0.3829890489578247	-354.388916015625	-0.0	-0.0	-0.0	-0.0	-0.0	-0.0	105251.6015625	2670.79345703125	-8606.8857421875
0.364	-0.0	-0.0	-0.0	-15.868741989135742	8.608792304992676	-352.72320556640625	-5.917685508728027	-0.4049338400363922	-354.9259338378906	-0.0	-0.0	-0.0	-0.0	-0.0	-0.0	105432.03125	2555.19482421875	-8589.537109375
0.3645	-0.0	-0.0	-0.0	-15.370403289794922	8.367644309997559	-354.48895263671875	-5.854911804199219	-0.2693322896957397	-354.9849853515625	-0.0	-0.0	-0.0	-0.0	-0.0	-0.0	105778.828125	2185.53857421875	-8593.04296875
